<?xml version="1.0" standalone="no"?>
<!DOCTYPE svg PUBLIC "-//W3C//DTD SVG 20010904//EN"
 "http://www.w3.org/TR/2001/REC-SVG-20010904/DTD/svg10.dtd">
<svg version="1.0" xmlns="http://www.w3.org/2000/svg"
 width="512.000000pt" height="512.000000pt" viewBox="0 0 512.000000 512.000000"
 preserveAspectRatio="xMidYMid meet">
<metadata>
Created by potrace 1.14, written by Peter Selinger 2001-2017
</metadata>
<g transform="translate(0.000000,512.000000) scale(0.100000,-0.100000)"
fill="#000000" stroke="none">
<path d="M2335 5069 c-27 -27 -54 -47 -60 -46 -5 2 -9 20 -7 39 2 20 -1 39 -7
42 -13 9 -63 -88 -70 -137 -3 -21 -10 -38 -16 -39 -5 -1 -20 17 -32 38 l-23
39 0 -47 0 -47 -36 24 c-48 33 -58 32 -50 -5 3 -16 9 -43 12 -60 7 -35 -2 -38
-47 -14 -36 18 -45 14 -30 -14 16 -30 13 -44 -6 -38 -59 17 -73 18 -73 3 0 -8
7 -20 15 -27 25 -21 17 -30 -25 -28 -58 2 -73 -18 -24 -31 47 -14 130 -81 99
-80 -11 0 -38 6 -60 14 -21 8 -41 12 -43 10 -2 -2 4 -15 14 -30 13 -19 14 -29
6 -37 -9 -9 -17 -7 -34 9 -24 21 -61 43 -74 43 -4 0 5 -13 21 -30 29 -30 29
-54 0 -30 -20 16 -90 17 -130 1 -23 -10 -26 -14 -15 -21 12 -7 9 -14 -14 -39
-26 -27 -29 -38 -29 -89 1 -36 9 -77 20 -103 19 -42 82 -109 103 -109 19 0 10
-21 -14 -32 -32 -14 -34 -21 -52 -158 -8 -65 -23 -132 -34 -155 -12 -24 -16
-41 -10 -45 6 -4 -1 -17 -15 -30 -14 -13 -39 -45 -55 -70 -46 -72 -37 -92 19
-44 l31 26 -9 -25 c-6 -14 -26 -46 -45 -72 -37 -48 -50 -81 -44 -111 3 -15 9
-13 41 15 50 45 58 33 14 -21 -28 -35 -67 -107 -67 -124 0 -3 11 3 25 12 14 9
28 15 30 12 7 -6 -21 -73 -47 -117 -19 -29 -22 -31 -31 -16 -14 25 -9 152 7
184 12 23 12 29 0 46 -8 11 -12 30 -9 43 8 32 -6 27 -47 -15 -42 -44 -86 -136
-134 -278 -18 -55 -40 -120 -49 -143 -20 -56 -62 -215 -81 -312 -18 -88 -44
-216 -48 -245 -2 -11 -14 -76 -26 -145 -12 -69 -26 -163 -31 -210 -5 -47 -13
-116 -19 -155 -9 -65 -23 -213 -36 -394 -3 -41 -12 -106 -19 -145 l-13 -71 -1
65 c-1 60 26 356 64 690 15 137 69 456 99 585 9 39 23 103 32 143 17 82 138
445 160 479 18 28 18 63 0 63 -7 0 -29 -7 -49 -15 -19 -8 -63 -18 -98 -22 -58
-8 -64 -11 -62 -30 l3 -22 -43 19 c-41 19 -77 26 -77 14 0 -3 5 -14 11 -26 6
-11 9 -22 6 -24 -3 -3 -31 4 -63 16 -92 32 -119 25 -66 -16 35 -29 27 -35 -30
-23 -25 6 -68 9 -94 7 l-49 -3 68 -32 c37 -18 67 -35 67 -39 0 -4 -45 -4 -101
0 -63 4 -99 3 -95 -2 3 -6 50 -24 103 -42 54 -17 104 -35 113 -40 25 -14 -33
-23 -104 -15 -70 7 -206 -3 -206 -15 0 -5 15 -13 33 -20 29 -11 30 -13 12 -20
-11 -5 -29 -9 -40 -9 -41 -2 -95 -22 -95 -36 0 -20 85 -20 205 0 50 8 115 15
145 14 55 -1 55 -1 24 -14 -16 -7 -68 -19 -115 -25 -104 -14 -261 -64 -297
-96 -33 -29 -32 -29 103 -4 60 11 132 20 159 19 l51 -1 -43 -14 c-24 -7 -77
-18 -118 -23 -75 -11 -174 -52 -174 -72 0 -7 7 -8 18 -4 17 6 108 25 123 25
22 0 5 -20 -44 -52 -73 -49 -156 -127 -135 -128 9 0 78 32 153 70 75 39 142
69 148 67 14 -4 -83 -76 -143 -107 -83 -41 -209 -125 -210 -139 0 -7 6 -11 14
-8 34 13 86 19 86 9 0 -5 -52 -44 -116 -87 -64 -42 -114 -79 -111 -81 3 -3 28
-1 56 4 58 11 67 0 20 -26 -46 -25 -84 -58 -73 -64 5 -4 43 5 84 18 41 13 79
22 85 21 5 -2 -24 -27 -64 -55 -70 -49 -74 -57 -26 -52 23 2 108 44 148 72 49
35 40 12 -15 -36 -63 -57 -166 -120 -240 -148 -99 -37 -98 -62 2 -52 l55 5
-35 -20 c-19 -11 -65 -27 -102 -36 -68 -17 -68 -17 -68 -52 l0 -35 65 7 c84 9
85 -6 3 -33 l-63 -20 -3 -91 c-1 -50 1 -91 5 -91 4 0 35 14 67 30 70 35 70 35
56 11 -5 -11 -10 -22 -10 -25 0 -14 45 -4 86 20 25 15 47 24 50 21 9 -9 -81
-78 -168 -128 -49 -28 -88 -55 -88 -60 0 -13 77 -11 85 2 4 6 13 8 21 5 17 -6
132 36 191 71 24 14 46 23 49 20 3 -3 -26 -23 -65 -44 -39 -21 -71 -44 -71
-50 0 -17 0 -17 110 7 51 11 96 18 98 15 10 -10 -88 -45 -179 -65 -140 -31
-170 -40 -164 -50 4 -6 34 -10 68 -10 81 0 58 -16 -37 -25 -39 -3 -79 -9 -89
-11 -23 -7 -23 -61 1 -67 16 -4 16 -5 0 -6 -15 -1 -18 -11 -18 -67 l0 -67 53
7 c28 4 68 9 87 12 32 5 34 4 17 -10 -10 -8 -50 -20 -88 -27 l-69 -12 0 -526
c0 -292 4 -521 9 -516 13 15 101 155 101 161 0 11 31 36 37 30 6 -5 -4 -57
-23 -124 -5 -17 -3 -21 9 -17 20 8 63 90 109 205 l37 95 0 -46 c1 -25 -6 -68
-14 -95 -18 -59 -17 -54 -5 -54 12 0 60 93 60 115 0 9 4 13 10 10 5 -3 10 -17
10 -30 0 -13 4 -26 9 -30 12 -7 29 45 40 120 l8 60 22 -48 c13 -27 25 -46 28
-44 3 3 6 32 8 64 7 106 16 163 26 158 5 -4 9 -25 9 -48 0 -48 9 -87 19 -87 8
0 46 80 57 120 4 14 29 66 55 115 46 84 49 88 49 55 0 -20 -7 -62 -15 -93 -19
-73 -19 -86 -1 -67 34 36 79 145 97 237 21 105 36 150 46 139 4 -4 10 -41 13
-83 3 -45 10 -78 17 -80 20 -7 50 97 69 237 10 74 19 137 21 139 1 2 9 -2 18
-9 11 -9 15 -34 15 -99 0 -116 -47 -723 -69 -906 -12 -92 -29 -212 -36 -252
l-6 -33 351 0 350 0 1 93 c1 50 5 106 10 122 5 18 6 -17 3 -92 -4 -117 -4
-123 15 -123 11 0 26 11 33 24 7 13 36 62 64 108 29 45 71 120 93 165 23 45
46 85 52 88 5 4 25 38 44 78 20 40 56 108 82 152 42 73 82 147 218 400 26 50
56 101 65 115 10 14 29 50 44 80 15 30 39 75 53 100 140 245 155 274 144 292
-15 23 -14 28 4 28 8 0 15 9 15 19 0 14 5 18 20 14 37 -10 22 38 -35 117 -31
41 -131 177 -223 301 -92 124 -188 255 -214 290 -185 253 -230 309 -249 309
-9 0 -14 -26 -28 -130 -6 -41 -17 -129 -27 -195 -32 -232 -43 -331 -43 -384
-1 -40 -4 -52 -12 -44 -12 12 -2 134 31 373 10 74 24 176 30 225 6 50 16 108
22 130 9 36 8 41 -15 60 -18 14 -23 25 -18 35 5 8 11 43 14 77 3 34 8 67 12
72 15 25 25 -5 25 -78 0 -51 5 -84 14 -96 14 -19 15 -19 27 8 15 34 29 19 29
-35 0 -28 7 -42 30 -61 16 -14 38 -40 48 -59 10 -18 28 -34 39 -36 14 -2 23
-16 32 -53 7 -27 18 -48 24 -46 6 2 20 30 31 63 l21 59 3 -55 c4 -88 9 -99 52
-117 22 -10 40 -23 40 -29 0 -16 119 -169 133 -171 7 -1 31 23 55 55 77 104
113 146 138 159 14 7 37 21 51 33 14 11 32 20 39 20 7 0 16 10 20 23 7 21 8
21 20 -8 l12 -30 15 34 c11 26 15 30 21 16 5 -14 9 -15 21 -5 10 8 15 31 15
66 0 57 11 69 31 32 l12 -22 24 28 c16 19 22 34 17 48 -5 16 -3 20 9 15 22 -8
37 13 37 52 0 53 14 68 29 34 l13 -28 16 30 c9 18 18 66 21 120 4 88 5 89 16
50 7 -22 16 -39 21 -38 24 5 26 150 2 196 -5 10 -7 21 -4 24 3 3 10 -6 16 -21
5 -14 22 -31 37 -37 33 -12 45 0 79 85 12 29 31 55 43 61 27 12 35 41 29 106
-3 27 -4 49 -2 49 2 0 12 -17 23 -37 17 -33 20 -35 26 -18 3 11 14 35 22 53
15 30 15 35 -1 69 -20 42 -16 51 9 23 28 -31 43 -24 50 24 6 36 2 56 -18 100
-14 31 -24 56 -22 56 2 0 15 -12 29 -27 l25 -27 12 28 c12 25 9 34 -21 89 -18
34 -41 71 -50 82 -23 27 -43 65 -33 65 4 0 19 -16 32 -35 47 -69 54 -36 17 80
-13 41 -21 75 -17 75 3 0 15 -7 25 -15 26 -20 36 -19 36 4 0 18 -67 87 -105
109 -11 6 -17 14 -13 17 4 4 20 -2 36 -14 17 -12 33 -21 36 -21 13 0 4 33 -26
94 -26 53 -40 69 -77 90 l-46 25 33 12 c37 13 42 29 10 29 -51 0 -52 16 -4 60
74 69 98 188 46 235 -18 16 -18 19 -4 30 14 10 13 13 -9 28 -15 9 -47 22 -72
29 -40 11 -52 10 -93 -5 -90 -35 -89 -35 -69 -3 10 15 16 30 13 33 -3 3 -27
-4 -53 -15 -27 -11 -49 -17 -51 -13 -7 21 48 120 77 137 17 10 31 21 31 25 0
3 -32 12 -72 19 l-72 12 27 20 c50 37 23 50 -54 26 -48 -14 -56 -8 -33 26 27
42 13 44 -68 11 -23 -9 -24 22 -2 53 14 20 14 22 -1 22 -9 0 -30 -13 -47 -30
-36 -36 -53 -39 -43 -7 9 27 10 75 1 84 -3 4 -17 -4 -31 -17 -27 -26 -27 -26
-41 9 l-10 24 -22 -37 c-22 -36 -47 -54 -59 -42 -4 4 1 20 11 37 21 35 9 62
-17 40 -18 -14 -29 6 -20 38 8 32 -7 25 -62 -30z m-102 -721 c26 -5 63 -21 83
-34 l36 -25 26 27 c40 39 56 42 215 45 l146 3 41 -29 c56 -39 108 -101 121
-145 6 -20 9 -80 8 -133 l-4 -97 -73 -72 -73 -71 -37 36 c-43 42 -97 67 -147
67 -47 0 -45 -21 4 -41 33 -14 42 -25 60 -72 11 -31 34 -81 51 -110 27 -49 30
-62 30 -143 0 -86 2 -92 33 -134 28 -39 32 -52 32 -105 0 -51 -7 -74 -47 -155
-67 -137 -52 -128 -152 -86 -106 46 -197 66 -301 66 -109 0 -186 -20 -230 -58
-44 -39 -93 -65 -110 -58 -7 2 -23 47 -35 98 -31 127 -23 206 26 279 35 50 35
51 23 107 -16 77 -6 146 27 189 14 19 36 60 49 91 20 48 30 61 70 82 26 14 46
30 44 35 -7 18 -67 8 -123 -19 -48 -23 -57 -33 -67 -67 -7 -21 -15 -39 -18
-39 -3 1 -15 14 -26 30 -11 15 -41 56 -67 89 -58 76 -66 119 -44 226 28 134
59 181 150 229 33 17 190 14 279 -6z m-677 -1065 c-5 -46 -9 -127 -7 -148 1
-5 8 -1 16 9 16 21 21 14 27 -34 4 -31 19 -30 35 1 l13 24 0 -26 c0 -36 28
-101 40 -94 6 3 15 26 21 51 20 77 31 63 25 -32 -3 -49 -5 -100 -6 -114 0 -23
-1 -23 -41 15 -22 22 -57 64 -77 94 -21 30 -48 70 -61 90 -22 32 -23 42 -18
113 7 82 11 98 29 98 6 0 8 -18 4 -47z m625 -896 c-8 -8 -11 -5 -11 9 0 27 14
41 18 19 2 -9 -1 -22 -7 -28z m145 -25 c-8 -15 -22 -35 -31 -42 -14 -12 -18
-12 -26 1 -15 23 -10 37 10 32 14 -3 21 2 26 19 4 12 13 29 19 37 18 23 20
-12 2 -47z m-86 -360 c22 -31 49 -70 62 -86 21 -28 21 -28 1 -18 -11 6 -23 18
-27 27 -15 39 -39 18 -208 -180 -57 -67 -128 -150 -160 -185 -192 -220 -239
-277 -256 -314 -24 -49 -39 -160 -48 -359 -7 -151 -14 -185 -16 -81 -1 70 21
502 27 524 3 8 7 56 10 105 13 205 32 426 38 432 11 10 3 -148 -18 -379 -4
-44 -2 -58 7 -58 7 0 33 26 58 58 43 55 127 154 230 272 115 133 222 264 232
286 14 29 19 26 68 -44z m230 -315 c0 -5 -11 5 -25 21 -14 17 -25 34 -25 38 0
11 49 -48 50 -59z m-890 -1155 c-9 -13 -10 0 -6 53 3 39 7 86 8 105 1 19 4 -4
5 -53 2 -52 -1 -94 -7 -105z m-3 -74 c-3 -8 -6 -5 -6 6 -1 11 2 17 5 13 3 -3
4 -12 1 -19z m-10 -175 c-3 -10 -5 -4 -5 12 0 17 2 24 5 18 2 -7 2 -21 0 -30z"/>
<path d="M2612 4259 c-24 -11 -73 -41 -109 -65 -36 -25 -73 -44 -82 -42 -10 2
-18 17 -21 42 -9 67 -30 58 -42 -17 -5 -33 -23 -20 -37 27 -18 58 -41 61 -41
6 0 -26 -5 -43 -14 -46 -8 -3 -40 8 -72 24 -101 50 -227 67 -284 37 -28 -14
-30 -19 -30 -73 0 -102 34 -172 82 -172 18 0 18 2 4 22 -9 12 -16 33 -16 46 0
19 4 23 18 17 72 -31 106 -37 208 -39 112 -1 144 -10 144 -42 0 -23 21 -27 43
-6 51 46 102 55 132 22 19 -21 38 -18 29 4 -6 17 25 26 91 26 56 0 127 29 144
57 9 16 10 16 11 -7 0 -14 -7 -37 -14 -52 -14 -26 -13 -28 4 -28 10 0 28 12
39 26 17 22 21 41 21 105 0 88 -11 108 -76 135 -45 19 -81 17 -132 -7z m-503
-156 c19 -12 28 -14 42 -5 11 7 20 8 24 2 3 -6 -5 -15 -18 -21 -19 -9 -31 -7
-56 5 -17 9 -31 21 -31 26 0 14 12 12 39 -7z m551 -3 c-13 -24 -74 -37 -95
-20 -22 18 -18 32 5 18 17 -11 25 -10 48 4 39 23 55 23 42 -2z"/>
<path d="M2183 3833 c-24 -9 -13 -22 36 -43 27 -12 61 -35 77 -51 15 -16 31
-29 35 -29 4 0 25 16 46 35 21 19 54 40 73 46 73 23 61 49 -22 49 -36 0 -52
-5 -68 -22 -11 -12 -20 -25 -20 -30 0 -4 -4 -8 -10 -8 -5 0 -10 11 -10 24 0
16 -7 26 -22 30 -27 7 -98 7 -115 -1z"/>
<path d="M2454 3697 c-33 -12 -73 -30 -89 -41 -27 -18 -27 -20 -22 -84 4 -35
8 -66 10 -68 7 -7 144 70 174 99 40 38 53 85 27 104 -22 16 -26 16 -100 -10z"/>
<path d="M2093 3703 c-21 -8 -14 -60 12 -91 29 -35 160 -106 181 -98 20 8 19
114 -1 143 -25 35 -147 65 -192 46z"/>
<path d="M2706 3264 c-26 -63 -51 -71 -127 -39 -149 63 -339 75 -493 30 -48
-14 -92 -25 -99 -25 -6 0 -20 14 -29 30 -29 50 -39 33 -14 -22 21 -50 25 -53
57 -52 19 0 67 8 107 17 135 31 313 18 441 -33 28 -11 61 -20 72 -20 48 0 119
81 119 134 0 39 -13 32 -34 -20z"/>
<path d="M4645 5078 c-9 -23 -42 -88 -72 -143 -31 -55 -79 -143 -106 -195 -27
-52 -82 -156 -122 -230 -40 -74 -94 -175 -119 -223 -85 -162 -198 -370 -264
-487 -35 -63 -80 -144 -100 -180 -19 -36 -54 -96 -77 -135 -23 -38 -76 -136
-118 -216 -42 -81 -84 -152 -92 -159 -8 -7 -15 -25 -15 -41 0 -15 -4 -30 -9
-34 -10 -6 -213 -369 -271 -485 -18 -36 -49 -92 -69 -125 -56 -92 -75 -149
-59 -175 11 -18 11 -23 -4 -31 -10 -6 -18 -16 -18 -22 0 -16 -68 -145 -80
-152 -5 -3 -21 7 -36 22 l-27 27 -28 -32 c-16 -18 -29 -40 -29 -50 0 -9 -18
-48 -39 -87 -20 -38 -55 -101 -75 -140 -36 -65 -99 -173 -151 -255 -12 -19
-66 -111 -120 -205 -54 -93 -106 -181 -115 -195 -10 -14 -31 -50 -47 -80 -80
-147 -126 -225 -134 -228 -5 -2 -21 -26 -35 -54 -22 -44 -24 -54 -13 -80 11
-26 9 -33 -23 -81 -19 -29 -95 -153 -168 -277 -73 -124 -139 -232 -146 -240
-7 -9 -20 -32 -29 -53 l-15 -37 112 0 113 0 94 168 c52 92 113 199 136 237 23
39 59 100 79 138 20 37 39 67 41 67 2 0 9 -9 15 -19 12 -24 -4 -65 -69 -176
-26 -44 -71 -123 -101 -175 -29 -52 -58 -102 -65 -110 -7 -8 -26 -41 -44 -72
l-32 -58 40 0 c23 0 41 4 41 10 0 5 15 33 34 62 18 29 53 89 77 133 23 44 60
109 81 145 22 36 53 95 71 132 33 70 45 79 68 52 14 -18 9 -30 -105 -229 -32
-55 -78 -136 -103 -180 -25 -44 -53 -90 -61 -102 l-14 -23 90 0 90 0 73 133
c41 72 82 150 92 171 9 22 29 49 42 62 14 13 25 32 25 43 0 29 15 33 35 11 10
-11 34 -24 54 -30 20 -5 74 -33 121 -61 173 -105 243 -141 316 -165 85 -28
106 -25 131 17 18 30 29 35 51 20 30 -19 -52 -116 -135 -160 -21 -11 -45 -25
-53 -30 -10 -8 77 -11 283 -11 l297 0 -5 113 c-7 129 9 130 18 2 9 -128 -28
-115 338 -115 297 0 319 1 319 18 0 9 -10 57 -21 107 -11 50 -24 115 -29 145
-5 30 -15 89 -23 130 -35 176 -87 595 -87 700 l0 63 -30 -7 c-39 -7 -38 2 5
44 20 19 48 55 63 80 19 33 27 40 30 27 2 -10 -1 -32 -7 -49 -7 -19 -7 -35 -2
-42 5 -6 11 -55 13 -108 2 -58 8 -102 15 -109 10 -10 14 -8 19 7 4 10 18 50
33 88 l26 70 7 -40 c3 -21 11 -68 16 -104 6 -42 21 -87 42 -123 35 -63 53 -67
39 -10 -11 49 -11 124 0 142 6 8 11 -7 16 -45 4 -33 10 -63 14 -69 4 -5 15
-30 24 -55 9 -25 28 -58 42 -75 l24 -30 0 25 c1 23 -13 91 -25 133 -3 9 -1 17
5 17 9 0 49 -77 94 -182 17 -38 43 -54 33 -20 -11 37 -28 179 -24 207 3 30 3
29 36 -22 38 -59 59 -129 65 -216 3 -31 8 -58 12 -60 17 -5 34 71 35 153 l1
85 25 -30 c13 -16 29 -47 36 -67 6 -21 15 -35 20 -32 12 8 -1 109 -20 154
l-14 35 21 -19 c32 -29 81 -138 88 -196 7 -57 23 -62 35 -9 12 52 0 118 -33
178 -17 29 -28 55 -25 58 3 3 25 -7 48 -23 23 -16 48 -33 55 -37 11 -6 13 106
13 573 l0 580 -25 10 c-14 5 -25 12 -25 16 0 3 11 3 25 0 20 -5 25 -3 25 14 0
27 -57 54 -147 69 -81 14 -97 31 -29 31 25 0 48 4 51 10 9 15 -54 49 -105 56
-81 11 -90 16 -45 29 l40 12 -57 16 c-31 10 -73 17 -95 18 -21 0 -60 4 -88 8
l-50 7 43 13 c53 15 46 31 -16 31 -101 1 -186 32 -230 81 -38 44 -41 55 -7 33
32 -21 33 -4 3 39 -24 33 -29 89 -14 139 6 22 4 27 -13 33 -12 3 -28 20 -36
36 -24 45 -75 98 -114 119 -20 10 -49 31 -66 45 -45 40 -82 56 -110 49 -14 -3
-25 -2 -25 3 0 12 229 420 341 610 27 45 49 84 49 87 0 3 24 47 54 98 29 51
69 122 88 158 165 305 248 453 259 464 30 32 -6 79 -91 121 -19 10 -59 35 -88
57 -30 22 -56 38 -58 35 -3 -2 0 -16 7 -29 10 -22 5 -36 -37 -114 -82 -154
-144 -266 -199 -359 -80 -138 -185 -323 -224 -397 -20 -36 -56 -99 -79 -140
-40 -67 -43 -75 -32 -105 14 -40 18 -33 -128 -250 -72 -109 -121 -173 -131
-173 -29 0 -71 24 -71 41 0 19 260 548 357 729 72 131 158 288 232 418 24 42
75 133 114 202 38 69 93 161 121 205 29 44 61 103 72 130 23 60 53 71 80 30
16 -24 16 -27 -10 -63 -32 -46 -32 -49 -1 -87 27 -33 30 -29 39 46 5 46 51
140 133 274 24 38 43 76 43 85 0 11 -14 19 -42 26 -37 8 -43 13 -46 37 -3 25
-6 27 -52 27 -47 0 -48 -1 -65 -42z m-956 -2065 c15 -16 35 -33 46 -39 18 -10
17 -14 -17 -80 -157 -303 -351 -634 -372 -634 -25 0 -96 34 -96 46 0 7 33 69
73 136 40 68 88 150 106 183 41 73 153 279 195 357 17 32 33 58 34 58 2 0 16
-12 31 -27z m410 -174 c123 -47 136 -61 106 -119 l-15 -28 -37 18 c-21 9 -78
31 -128 47 l-90 29 2 34 c1 19 9 40 19 47 20 15 42 11 143 -28z m-105 -210
c55 -17 107 -33 114 -35 18 -5 14 -26 -13 -58 -22 -28 -26 -29 -52 -17 -34 16
-159 57 -195 65 -33 7 -36 28 -8 56 26 26 34 26 154 -11z m388 -220 c38 -38
73 -103 63 -117 -6 -7 -215 208 -215 222 0 20 84 -38 152 -105z m-507 38 c50
-13 105 -28 123 -32 41 -9 41 -29 1 -78 -27 -33 -33 -36 -48 -24 -9 7 -50 21
-91 31 -169 41 -181 51 -135 112 20 26 30 32 43 25 9 -4 58 -20 107 -34z m381
-133 c114 -38 179 -75 208 -119 26 -39 11 -43 -32 -9 -47 38 -118 68 -207 88
-87 20 -145 45 -145 63 0 23 61 15 176 -23z m-491 -63 c104 -30 155 -48 155
-54 0 -2 -14 -14 -31 -26 -26 -19 -35 -21 -53 -12 -11 6 -61 19 -111 30 -78
16 -90 21 -93 40 -3 21 13 51 27 51 3 0 51 -13 106 -29z m-435 -41 c6 0 10
-10 8 -22 -5 -35 -38 -32 -82 6 -34 29 -38 37 -27 50 11 13 17 12 52 -9 21
-14 44 -25 49 -25z m899 -40 c42 -21 91 -73 91 -96 0 -14 -178 94 -179 109 -2
14 50 7 88 -13z m-959 -76 c45 -18 51 -40 22 -82 -28 -41 -162 -278 -162 -287
0 -5 -20 -40 -44 -79 -24 -39 -69 -112 -100 -163 l-57 -92 -54 26 c-30 15 -55
30 -55 34 0 8 83 156 175 309 69 115 160 271 187 319 19 35 32 37 88 15z m527
-21 c32 -13 49 -30 40 -40 -6 -6 -66 12 -114 34 -70 32 -2 38 74 6z m390 -8
c23 -14 47 -34 53 -44 7 -15 -9 -10 -75 22 -47 22 -85 45 -85 50 0 15 60 -1
107 -28z m-647 -46 c10 -17 3 -33 -43 -108 -30 -48 -58 -98 -62 -112 -4 -13
-27 -55 -50 -94 -23 -38 -64 -110 -90 -160 -26 -49 -63 -116 -81 -148 -19 -32
-34 -61 -34 -65 0 -4 -9 -18 -20 -32 -15 -21 -20 -22 -25 -9 -7 19 41 114 213
419 117 206 148 264 161 298 16 38 17 38 31 11z m1455 -21 c14 -6 25 -15 25
-20 0 -13 -13 -9 -40 12 -28 22 -23 25 15 8z m-1997 -56 c-5 -20 -16 -44 -23
-52 -7 -8 -45 -69 -85 -134 -122 -203 -161 -259 -172 -248 -8 8 -5 19 8 38 10
15 22 32 26 38 22 32 119 195 176 293 65 113 89 135 70 65z m637 -24 c14 -6
25 -16 25 -22 0 -22 -86 -178 -103 -188 -18 -9 -82 5 -92 22 -2 4 9 25 26 46
17 22 40 57 51 79 22 44 47 75 59 75 4 0 20 -5 34 -12z m133 -65 c9 -10 29
-25 42 -34 32 -22 23 -31 -18 -19 -31 8 -34 6 -56 -28 -68 -108 -352 -650
-344 -657 11 -11 163 -65 183 -65 16 0 30 20 64 93 152 326 294 584 329 595
18 6 14 -20 -8 -48 -39 -50 -14 -65 57 -35 50 21 55 9 12 -28 -125 -111 -149
-134 -149 -145 0 -24 31 -24 97 -3 36 12 67 20 68 19 1 -2 5 -15 8 -29 6 -23
2 -28 -31 -42 -20 -9 -64 -19 -97 -23 -65 -7 -105 -26 -105 -49 0 -21 41 -29
150 -29 l95 -1 17 35 c10 19 16 47 13 61 -4 28 17 49 82 82 50 26 49 21 -10
-42 -52 -57 -77 -113 -57 -134 4 -5 33 14 65 42 83 72 96 67 49 -20 -22 -39
-33 -50 -60 -55 -18 -3 -38 -3 -44 1 -6 4 -20 -1 -30 -10 -17 -15 -19 -15 -25
4 -6 20 -11 21 -128 15 -128 -7 -157 -14 -157 -40 0 -9 -8 -28 -18 -42 -35
-51 -82 -195 -78 -237 2 -22 7 -110 11 -195 11 -253 12 -278 18 -287 2 -4 7
-69 10 -143 l5 -135 -13 110 c-8 61 -18 196 -24 300 -18 301 -19 312 -30 334
-9 16 -18 19 -42 14 -17 -3 -45 1 -67 9 -158 64 -192 75 -200 64 -22 -28 -342
-684 -342 -701 0 -7 -7 -18 -15 -25 -12 -10 -28 -4 -87 31 -40 23 -97 56 -127
71 -30 16 -57 31 -60 33 -2 3 16 35 41 72 72 109 118 182 118 189 0 4 17 34
38 68 67 105 160 289 167 329 4 20 13 37 20 37 18 0 71 82 195 301 58 102 112
196 120 208 l15 22 37 -27 c70 -50 144 -11 198 104 32 68 56 102 72 102 4 0
16 -8 26 -17z m-1053 -423 c3 -5 19 -10 34 -10 16 0 45 -11 65 -25 21 -14 53
-32 72 -40 19 -8 34 -17 34 -20 0 -6 -148 -297 -190 -374 -52 -95 -141 -241
-151 -247 -6 -3 -14 -17 -19 -30 -6 -15 -18 -24 -30 -24 -32 0 -118 47 -136
75 -15 24 -15 27 15 72 35 52 37 78 6 78 -14 0 -27 -14 -43 -47 -12 -27 -27
-48 -33 -48 -24 0 -17 34 27 119 43 82 50 91 75 91 36 0 37 -7 4 -20 -14 -5
-25 -16 -25 -24 0 -16 43 -29 69 -21 17 5 51 55 51 75 0 6 9 24 21 38 11 15
31 44 44 65 l24 37 -24 36 c-14 20 -25 44 -25 52 0 11 64 140 97 195 6 10 31
9 38 -3z m312 -172 c28 -26 29 -36 4 -62 -18 -19 -84 -131 -167 -281 -19 -33
-34 -68 -34 -77 0 -37 -42 -14 -69 39 -10 19 -8 28 8 50 17 25 83 143 165 295
34 64 55 72 93 36z m-288 -474 c41 -52 22 -92 -48 -101 -54 -7 -62 19 -26 82
31 52 45 55 74 19z m-429 -109 c0 -8 -7 -15 -15 -15 -16 0 -20 12 -8 23 11 12
23 8 23 -8z m343 -64 c50 -14 58 -25 29 -40 -14 -7 -29 -4 -60 15 -39 23 -58
50 -29 42 6 -2 33 -10 60 -17z"/>
<path d="M2652 1315 c-31 -63 -31 -83 0 -47 21 24 48 78 48 97 0 31 -16 14
-48 -50z"/>
<path d="M3287 3828 c-2 -7 4 -40 13 -73 32 -113 33 -203 4 -330 -3 -16 -18
-45 -32 -64 -14 -18 -34 -56 -44 -84 -11 -28 -28 -57 -38 -64 -11 -8 -30 -36
-44 -63 -14 -27 -43 -76 -65 -110 -23 -34 -41 -64 -41 -66 0 -3 -12 -16 -27
-29 -41 -35 -26 -50 123 -127 l129 -67 17 22 c9 12 20 33 23 47 4 14 17 39 29
55 13 17 40 62 59 102 20 39 41 74 47 78 5 3 10 16 10 27 0 12 7 29 15 38 8 9
67 112 131 230 153 282 148 271 138 279 -5 5 -44 21 -86 36 -42 15 -136 60
-209 101 -72 41 -135 74 -139 74 -5 0 -10 -6 -13 -12z"/>
<path d="M4428 3533 c-17 -18 -44 -68 -161 -293 -33 -63 -75 -141 -94 -172
-23 -37 -33 -63 -29 -76 11 -33 227 -227 279 -250 26 -11 47 -24 47 -28 0 -4
-10 -22 -21 -41 -39 -63 -5 -174 64 -206 18 -9 63 -21 101 -27 83 -13 229 -67
294 -109 26 -17 81 -57 122 -90 41 -33 78 -61 83 -61 4 0 7 24 7 53 0 49 -4
57 -50 112 -27 32 -47 61 -45 64 3 2 26 -15 50 -39 l45 -44 0 65 0 65 -81 78
c-44 43 -78 80 -75 83 3 3 37 -13 76 -36 40 -22 74 -41 76 -41 16 0 -4 24 -53
65 -32 27 -49 45 -38 41 40 -16 95 -19 95 -6 0 15 -37 68 -65 93 -14 13 -16
20 -7 23 24 11 11 24 -60 59 -78 39 -201 125 -177 125 8 0 43 -9 77 -20 119
-37 131 -19 27 39 -74 42 -79 54 -19 45 70 -11 86 -10 91 2 5 15 -90 42 -172
50 -74 6 -176 41 -183 62 -5 16 19 15 172 -7 212 -32 196 0 -26 55 -65 15
-118 32 -118 36 0 4 6 8 13 8 47 0 185 24 208 36 36 18 38 39 3 30 -14 -4 -59
-4 -101 0 -63 6 -73 9 -60 19 28 20 20 25 -44 25 -71 0 -70 13 3 30 79 18 88
21 88 29 0 10 -100 3 -163 -11 -26 -5 -51 -8 -53 -5 -9 9 58 40 99 46 43 7 46
26 4 26 -15 0 -32 7 -37 15 -8 12 -18 11 -76 -8 -38 -12 -70 -20 -72 -18 -2 3
6 18 19 35 30 40 19 49 -27 22 -43 -26 -53 -21 -30 14 10 15 16 33 14 42 -3
13 -6 12 -20 -4z"/>
<path d="M2934 2773 c-9 -35 -121 -177 -206 -260 -34 -35 -75 -75 -90 -90 -15
-16 -39 -39 -54 -53 -59 -54 -233 -267 -234 -285 0 -6 17 -27 38 -46 20 -19
73 -81 117 -137 76 -97 105 -120 105 -87 0 9 9 33 19 54 22 42 55 138 66 191
12 56 37 100 57 100 10 0 46 -11 79 -25 34 -13 76 -27 93 -31 30 -5 34 -2 69
50 20 31 37 62 37 70 0 8 4 18 10 21 5 3 14 23 20 45 6 21 44 109 85 194 41
86 75 160 75 164 -1 8 -226 136 -258 146 -18 6 -23 2 -28 -21z"/>
<path d="M2710 243 c-39 -20 -80 -75 -80 -107 0 -62 83 -126 162 -126 45 1 67
14 106 64 28 36 28 69 1 113 -38 61 -127 88 -189 56z"/>
</g>
</svg>
